<svg xmlns="http://www.w3.org/2000/svg" viewBox="0 0 300 220" fill="white">
  <g transform="skewX(-15) translate(40, 20)">
    
    <g transform="translate(25, 0)">
      <path d="M50 20 L85 20 L115 100 L85 100 L78 82 L42 82 L35 100 L5 100 Z M60 38 L48 70 L72 70 Z" />
      <path d="M110 20 L185 20 L185 45 L135 75 L185 75 L185 100 L110 100 L110 75 L160 45 L110 45 Z" />
    </g>

    <g transform="translate(0, 90)">
      <path d="M0 60 C0 30 20 18 50 18 C80 18 100 30 100 60 C100 90 80 102 50 102 C20 102 0 90 0 60 M33 60 C33 75 40 80 50 80 C60 80 67 75 67 60 C67 45 60 40 50 40 C40 40 33 45 33 60 Z" />
      <path d="M100 20 L175 20 L175 42 L153 42 L153 100 L122 100 L122 42 L100 42 Z" />
      <path d="M175 20 L205 20 L205 50 L240 50 L240 20 L270 20 L270 100 L240 100 L240 72 L205 72 L205 100 L175 100 Z" />
    </g>
    
  </g>
</svg>